<svg version="1.1" id="Layer_1" xmlns="http://www.w3.org/2000/svg" xmlns:xlink="http://www.w3.org/1999/xlink" x="0px" y="0px"
	 width="100%" viewBox="0 0 96 96" enable-background="new 0 0 96 96" xml:space="preserve">
<path fill="#F9F9F9" opacity="1.000000" stroke="none" 
	d="
M52.000000,97.000000 
	C34.666668,97.000000 17.833340,97.000000 1.000007,97.000000 
	C1.000005,65.000008 1.000005,33.000019 1.000002,1.000020 
	C32.999985,1.000013 64.999969,1.000013 96.999969,1.000007 
	C96.999977,32.999981 96.999977,64.999962 96.999985,96.999969 
	C82.166664,97.000000 67.333336,97.000000 52.000000,97.000000 
M82.682968,39.341080 
	C82.584740,38.939388 82.486504,38.537701 82.428436,37.190475 
	C81.509422,36.770550 80.590958,35.991688 79.671295,35.990269 
	C74.568863,35.982395 69.217094,34.961975 65.026878,38.157639 
	C61.528236,35.325108 62.068554,31.379635 62.106499,27.570955 
	C62.116459,26.571634 61.983982,25.553379 62.131870,24.576357 
	C62.515606,22.041222 61.322269,20.991758 58.957943,21.019821 
	C58.957943,21.019821 59.060043,21.035934 59.014645,20.183916 
	C58.783047,13.503024 55.662838,11.776445 49.415146,14.704240 
	C48.902664,14.944397 47.726864,14.092255 47.021526,13.540303 
	C44.332996,11.436439 39.661919,12.571243 39.046295,15.549470 
	C39.046295,15.549470 39.070957,15.431906 38.122036,15.366310 
	C37.391319,16.028357 36.054142,16.666985 36.027531,17.356222 
	C35.843796,22.114506 35.881744,26.884890 36.024490,31.646107 
	C36.037121,32.067253 37.306690,32.450718 38.408806,33.024109 
	C38.408806,33.024109 38.857933,33.060822 38.910515,33.820774 
	C38.967762,34.576126 39.025009,35.331482 38.160591,35.917313 
	C34.486046,35.917313 30.811502,35.917313 27.136957,35.917313 
	C27.019997,36.480221 26.903036,37.043129 26.786074,37.606033 
	C27.947161,38.050991 29.143480,38.941029 30.262329,38.852455 
	C32.970413,38.638065 33.244724,40.031303 32.130039,41.821144 
	C28.486382,41.068562 24.842726,40.315975 21.292112,39.582611 
	C18.900574,44.274071 23.429579,45.274342 25.647396,46.188652 
	C28.098177,45.778633 30.548960,45.368614 32.986206,45.722191 
	C33.603592,46.837490 34.220982,47.952789 34.838367,49.068092 
	C34.935394,49.058758 35.032417,49.049427 35.129444,49.040096 
	C36.443066,51.351700 37.756687,53.663307 38.202515,56.054379 
	C33.834614,56.229591 33.880943,56.205402 35.745090,59.775978 
	C36.087105,60.431068 35.900520,61.371204 35.926079,62.180771 
	C36.008423,64.788712 36.075871,67.397133 36.067123,70.527786 
	C36.372093,70.603363 36.677067,70.678932 37.830853,70.912346 
	C39.061214,70.978386 40.291580,71.044426 40.471489,71.054077 
	C42.194481,74.196060 43.487492,76.553940 44.050880,79.330177 
	C42.169174,80.932884 40.287468,82.535583 38.405758,84.138283 
	C38.651379,84.441040 38.896996,84.743797 39.142612,85.046555 
	C40.962597,85.046555 42.782581,85.046555 44.643795,85.046555 
	C44.643795,82.736092 44.643795,80.786781 45.351009,79.358513 
	C46.949059,79.505287 48.547104,79.652061 50.129780,79.797432 
	C50.454624,81.812378 50.728424,83.510704 51.026226,85.357895 
	C57.309937,81.510826 57.309937,81.510826 53.358601,78.035660 
	C54.359474,76.986130 55.391975,75.903435 57.262238,73.942261 
	C54.258934,73.942261 52.628506,73.942261 50.803963,73.477837 
	C50.517544,73.318184 50.231125,73.158531 50.010979,72.124611 
	C52.846390,71.575523 55.681805,71.026436 58.755550,70.431190 
	C58.974812,72.480759 59.110149,73.745857 59.117329,75.510262 
	C59.407410,75.607925 59.697487,75.705597 60.815002,75.973488 
	C64.037971,75.024643 67.260948,74.075806 70.824066,73.026825 
	C70.824066,76.015434 70.824066,77.505478 70.082222,78.924339 
	C64.217117,82.670128 76.056580,81.881393 71.700005,85.240814 
	C71.900024,85.422485 72.100037,85.604156 72.475449,85.945129 
	C73.761375,85.790710 75.199951,85.617958 76.803955,85.425339 
	C77.002411,83.572495 77.172661,81.982994 77.387680,79.975502 
	C79.543869,79.975502 81.524094,80.114731 83.467545,79.908104 
	C84.263184,79.823517 84.979332,78.991341 85.731651,78.499260 
	C85.040810,77.731583 84.436028,76.425041 83.642822,76.298363 
	C81.362343,75.934181 79.005699,76.047005 76.694466,75.147705 
	C76.502716,72.431679 76.310966,69.715660 76.824043,67.148689 
	C78.442505,66.539703 80.060974,65.930717 81.821632,65.268227 
	C81.882950,65.505913 82.170311,66.619682 82.497299,67.887062 
	C83.892761,67.465126 84.915810,67.155800 85.194511,67.071526 
	C84.317909,65.364998 83.128479,64.084457 83.103729,62.781792 
	C83.055038,60.218498 82.735474,57.907185 85.127838,55.299911 
	C87.851089,52.332020 85.480003,48.240570 83.896896,45.016895 
	C84.225281,44.026695 84.553673,43.036491 84.859703,41.453148 
	C84.105835,40.965122 83.351967,40.477097 82.682968,39.341080 
M17.707882,33.031719 
	C22.783808,33.031719 27.859735,33.031719 32.843029,33.031719 
	C32.843029,25.901575 32.843029,19.460386 32.843029,12.932294 
	C26.088873,12.932294 19.526690,12.932294 12.807071,12.932294 
	C12.807071,19.653406 12.807071,26.087198 12.807071,32.801991 
	C14.219859,32.883987 15.492534,32.957851 17.707882,33.031719 
M76.492538,32.998802 
	C79.399834,32.998802 82.307121,32.998802 84.990135,32.998802 
	C84.990135,25.825867 84.990135,19.396894 84.990135,12.899504 
	C78.255730,12.899504 71.832436,12.899504 65.286697,12.899504 
	C65.286697,19.659601 65.286697,26.217115 65.286697,32.998802 
	C68.880745,32.998802 72.191368,32.998802 76.492538,32.998802 
M18.553211,65.001190 
	C16.637436,65.001190 14.721662,65.001190 12.937190,65.001190 
	C12.937190,72.067932 12.937190,78.474426 12.937190,85.031158 
	C19.679949,85.031158 26.183842,85.031158 32.998802,85.031158 
	C32.998802,81.481102 32.998802,78.195320 32.998802,74.909546 
	C32.998802,71.662758 32.998802,68.415962 32.998802,65.001190 
	C28.111725,65.001190 23.823956,65.001190 18.553211,65.001190 
M16.789127,61.084972 
	C22.631859,60.648598 20.048838,53.517666 24.236378,51.195602 
	C20.387016,51.320267 16.902431,52.249756 13.501823,53.422714 
	C13.001235,53.595379 12.898927,54.922729 12.656198,55.594467 
	C14.913827,56.255447 16.750860,56.793285 18.587893,57.331123 
	C18.460930,57.709785 18.333967,58.088451 18.207005,58.467117 
	C16.302855,58.939354 14.398705,59.411591 12.494555,59.883831 
	C12.576135,60.284851 12.657714,60.685867 12.739293,61.086887 
	C13.841422,61.086887 14.943552,61.086887 16.789127,61.084972 
M16.328030,38.853745 
	C15.117414,38.976059 13.906798,39.098373 12.437073,39.246864 
	C12.623826,42.340252 12.784569,45.002808 12.945312,47.665363 
	C15.642027,45.108147 17.150761,42.692131 18.527227,40.202972 
	C18.592600,40.084751 17.485762,39.318314 16.328030,38.853745 
z"/>
<path fill="#060606" opacity="1.000000" stroke="none" 
	d="
M59.245491,75.010948 
	C59.110149,73.745857 58.974812,72.480759 58.755550,70.431190 
	C55.681805,71.026436 52.846390,71.575523 49.652744,72.558624 
	C48.508530,74.048958 47.722549,75.105293 46.936565,76.161621 
	C47.540981,76.538666 48.145397,76.915710 48.749809,77.292755 
	C49.499233,76.175919 50.248653,75.059090 50.998077,73.942261 
	C52.628506,73.942261 54.258934,73.942261 57.262238,73.942261 
	C55.391975,75.903435 54.359474,76.986130 53.358601,78.035660 
	C57.309937,81.510826 57.309937,81.510826 51.026226,85.357895 
	C50.728424,83.510704 50.454624,81.812378 50.129780,79.797432 
	C48.547104,79.652061 46.949059,79.505287 45.019402,79.140945 
	C44.687798,78.923386 44.780502,78.911827 44.780502,78.911827 
	C43.487492,76.553940 42.194481,74.196060 40.471489,71.054077 
	C40.291580,71.044426 39.061214,70.978386 37.309128,70.667252 
	C36.614594,70.222031 36.401814,70.083092 36.149063,70.005363 
	C36.075871,67.397133 36.008423,64.788712 35.926079,62.180771 
	C35.900520,61.371204 36.087105,60.431068 35.745090,59.775978 
	C33.880943,56.205402 33.834614,56.229591 38.609604,55.989853 
	C39.016697,55.925327 38.944656,55.937313 38.963860,56.404480 
	C38.983067,60.474735 38.983067,64.077820 38.983067,68.799301 
	C41.412312,67.749893 43.048176,66.967415 44.739635,66.333199 
	C46.538586,65.658684 48.404026,65.158379 50.178699,64.431320 
	C50.269066,64.394295 49.993671,62.416225 49.520878,62.217739 
	C45.529049,60.541878 47.929295,58.359962 48.603073,55.579433 
	C50.114567,57.195560 51.135887,58.287586 52.952122,60.229549 
	C53.246456,57.234146 53.414558,55.523373 53.634476,53.285294 
	C55.651150,53.449783 57.378048,53.590633 60.382969,53.835728 
	C58.121742,55.847549 56.993923,56.850975 55.560566,58.126232 
	C62.445244,59.991062 64.969627,58.278191 65.029190,52.403301 
	C65.044205,50.922001 65.191658,49.442043 65.625259,48.025673 
	C66.563560,47.740993 67.154846,47.392113 67.746132,47.043236 
	C66.874695,46.703918 66.003265,46.364605 64.958649,45.611702 
	C64.880562,43.115364 64.975670,41.032619 65.027847,38.934269 
	C64.984917,38.918667 64.924736,38.987400 64.924736,38.987400 
	C69.217094,34.961975 74.568863,35.982395 79.671295,35.990269 
	C80.590958,35.991688 81.509422,36.770550 81.986336,37.633957 
	C80.019234,38.426456 78.494225,38.775475 76.699707,39.222031 
	C76.248131,39.861359 76.066071,40.403149 75.608795,40.944931 
	C74.966621,40.937241 74.599655,40.929558 74.141434,40.726562 
	C74.050186,40.531246 73.914963,40.121845 73.886284,39.775757 
	C71.704674,37.506416 71.065445,37.779942 70.027191,41.028263 
	C70.006180,40.996830 70.059364,41.052158 69.726486,41.053986 
	C69.178070,42.044991 68.962524,43.034168 68.898125,44.276894 
	C69.359955,44.766354 69.670647,45.002266 69.984673,45.649139 
	C70.302925,48.362999 70.617836,50.665901 71.099884,53.255798 
	C71.913406,53.666229 72.559784,53.789669 73.213165,54.229958 
	C73.758102,55.059380 74.296036,55.571953 75.085297,56.409355 
	C75.500214,59.462093 75.663803,62.190002 75.603363,64.938553 
	C75.379341,64.959183 74.929703,64.975578 74.616928,65.022346 
	C73.962662,65.799377 73.621170,66.529648 73.279678,67.259911 
	C73.805000,67.283470 74.330330,67.307030 75.163284,67.216309 
	C75.687019,67.067894 75.903122,67.033760 76.119217,66.999634 
	C76.310966,69.715660 76.502716,72.431679 76.362839,75.545013 
	C75.273750,76.311813 74.516304,76.681305 73.569572,77.196533 
	C73.247002,77.793930 73.113708,78.245583 72.637421,78.830765 
	C71.804306,78.974701 71.314186,78.985115 70.824066,78.995529 
	C70.824066,77.505478 70.824066,76.015434 70.824066,73.026825 
	C67.260948,74.075806 64.037971,75.024643 60.318584,75.721344 
	C59.677132,75.257065 59.484905,75.104317 59.245491,75.010948 
M62.051552,68.336937 
	C63.805843,74.171234 67.878601,69.461220 70.585861,70.811104 
	C70.585861,67.527153 70.585861,64.815659 70.585861,62.307312 
	C67.618073,62.307312 65.020737,62.307312 62.050697,62.307312 
	C62.050697,64.178436 62.050697,65.797485 62.051552,68.336937 
M68.019875,56.186581 
	C68.137329,55.653038 68.254784,55.119495 68.372238,54.585953 
	C68.089485,54.589703 67.563370,54.568928 67.560150,54.600845 
	C67.503731,55.160744 67.511230,55.727081 68.019875,56.186581 
M58.504963,63.494656 
	C58.846123,63.784168 59.187283,64.073685 59.528442,64.363197 
	C59.640060,63.914200 59.751678,63.465202 59.863293,63.016201 
	C59.468082,63.019928 59.072876,63.023651 58.504963,63.494656 
M66.654839,59.372738 
	C66.579842,59.120087 66.504845,58.867435 66.429848,58.614788 
	C66.150024,58.888241 65.870193,59.161694 65.590370,59.435146 
	C65.841209,59.516258 66.092041,59.597370 66.654839,59.372738 
z"/>
<path fill="#161616" opacity="1.000000" stroke="none" 
	d="
M17.236546,33.031715 
	C15.492534,32.957851 14.219859,32.883987 12.807071,32.801991 
	C12.807071,26.087198 12.807071,19.653406 12.807071,12.932294 
	C19.526690,12.932294 26.088873,12.932294 32.843029,12.932294 
	C32.843029,19.460386 32.843029,25.901575 32.843029,33.031719 
	C27.859735,33.031719 22.783808,33.031719 17.236546,33.031715 
M15.566084,18.447945 
	C15.566084,22.209267 15.566084,25.970589 15.566084,29.733076 
	C20.697596,29.733076 25.260845,29.733076 29.709667,29.733076 
	C29.709667,24.850830 29.709667,20.276030 29.709667,15.566956 
	C25.723553,15.566956 22.055128,15.438670 18.406786,15.652700 
	C17.434679,15.709728 16.524092,16.815414 15.566084,18.447945 
z"/>
<path fill="#F0F0F0" opacity="1.000000" stroke="none" 
	d="
M39.070957,15.431906 
	C39.070957,15.431906 39.046295,15.549470 39.389450,15.521601 
	C45.775028,15.067778 47.461586,19.049286 47.942333,24.201340 
	C49.737473,24.097755 52.334461,24.356228 52.479759,23.874784 
	C53.620655,20.094461 56.855831,21.843699 59.060043,21.035934 
	C59.060043,21.035934 58.957943,21.019821 59.020798,21.437109 
	C59.017715,27.230339 58.951775,32.606281 58.560410,37.947731 
	C56.650295,36.925442 55.065601,35.937653 53.378326,34.531822 
	C51.956276,32.076080 50.636806,30.038382 48.605507,26.901373 
	C47.913647,27.290911 46.363544,28.453436 44.619705,29.038628 
	C43.544922,29.399298 42.049049,29.160509 40.970528,28.679251 
	C39.776688,28.146534 38.843246,27.030247 37.458988,25.890209 
	C39.280617,24.729788 40.644276,23.861105 42.007938,22.992422 
	C41.477329,22.918480 40.946720,22.844536 40.416115,22.770594 
	C39.967728,20.324364 39.519344,17.878136 39.070957,15.431906 
z"/>
<path fill="#060606" opacity="1.000000" stroke="none" 
	d="
M75.997269,32.998802 
	C72.191368,32.998802 68.880745,32.998802 65.286697,32.998802 
	C65.286697,26.217115 65.286697,19.659601 65.286697,12.899504 
	C71.832436,12.899504 78.255730,12.899504 84.990135,12.899504 
	C84.990135,19.396894 84.990135,25.825867 84.990135,32.998802 
	C82.307121,32.998802 79.399834,32.998802 75.997269,32.998802 
M70.581726,30.145653 
	C74.498344,30.145653 78.414963,30.145653 82.286957,30.145653 
	C82.286957,24.877146 82.286957,20.315716 82.286957,15.646093 
	C77.353867,15.646093 72.773949,15.646093 67.860710,15.646093 
	C67.860710,20.065447 67.788765,24.207207 67.938454,28.340942 
	C67.960854,28.959551 69.022629,29.540520 70.581726,30.145653 
z"/>
<path fill="#060606" opacity="1.000000" stroke="none" 
	d="
M19.044699,65.001190 
	C23.823956,65.001190 28.111725,65.001190 32.998802,65.001190 
	C32.998802,68.415962 32.998802,71.662758 32.998802,74.909546 
	C32.998802,78.195320 32.998802,81.481102 32.998802,85.031158 
	C26.183842,85.031158 19.679949,85.031158 12.937190,85.031158 
	C12.937190,78.474426 12.937190,72.067932 12.937190,65.001190 
	C14.721662,65.001190 16.637436,65.001190 19.044699,65.001190 
M22.557646,67.853645 
	C20.287771,67.853645 18.017897,67.853645 15.665987,67.853645 
	C15.665987,73.000366 15.665987,77.574699 15.665987,82.390610 
	C20.550655,82.390610 25.132141,82.390610 29.812334,82.390610 
	C29.812334,77.443962 29.812334,72.735016 29.812334,67.853645 
	C27.494551,67.853645 25.509853,67.853645 22.557646,67.853645 
z"/>
<path fill="#0C0C0C" opacity="1.000000" stroke="none" 
	d="
M38.596497,15.399108 
	C39.519344,17.878136 39.967728,20.324364 40.416115,22.770594 
	C40.946720,22.844536 41.477329,22.918480 42.007938,22.992422 
	C40.644276,23.861105 39.280617,24.729788 37.458988,25.890209 
	C38.843246,27.030247 39.776688,28.146534 40.970528,28.679251 
	C42.049049,29.160509 43.544922,29.399298 44.619705,29.038628 
	C46.363544,28.453436 47.913647,27.290911 48.605507,26.901373 
	C50.636806,30.038382 51.956276,32.076080 53.244972,34.787853 
	C53.121063,35.630344 53.027924,35.798763 52.491501,35.979420 
	C49.968460,35.993744 47.872211,35.852333 45.819351,36.088337 
	C45.229721,36.156124 44.765354,37.313496 44.090309,38.330059 
	C43.265850,38.363461 42.577549,38.068699 41.927387,37.705647 
	C40.919121,37.142628 39.936855,36.533062 38.978363,35.979012 
	C39.013165,36.014790 39.082256,36.086834 39.082256,36.086834 
	C39.025009,35.331482 38.967762,34.576126 39.119148,33.296459 
	C39.201481,32.319492 39.075184,31.866840 38.948883,31.414188 
	C38.630074,31.893353 38.311268,32.372517 37.992462,32.851685 
	C37.306690,32.450718 36.037121,32.067253 36.024490,31.646107 
	C35.881744,26.884890 35.843796,22.114506 36.027531,17.356222 
	C36.054142,16.666985 37.391319,16.028357 38.596497,15.399108 
z"/>
<path fill="#0C0C0C" opacity="1.000000" stroke="none" 
	d="
M59.037346,20.609924 
	C56.855831,21.843699 53.620655,20.094461 52.479759,23.874784 
	C52.334461,24.356228 49.737473,24.097755 47.942333,24.201340 
	C47.461586,19.049286 45.775028,15.067778 39.330132,15.531013 
	C39.661919,12.571243 44.332996,11.436439 47.021526,13.540303 
	C47.726864,14.092255 48.902664,14.944397 49.415146,14.704240 
	C55.662838,11.776445 58.783047,13.503024 59.037346,20.609924 
z"/>
<path fill="#848484" opacity="1.000000" stroke="none" 
	d="
M74.929703,64.975578 
	C74.929703,64.975578 75.379341,64.959183 76.008621,64.890953 
	C79.275261,60.324478 78.606483,57.084972 74.833969,56.084526 
	C74.296036,55.571953 73.758102,55.059380 73.458717,54.028748 
	C74.777634,53.003990 75.857994,52.497292 76.998741,52.180420 
	C77.059128,52.370243 77.066925,52.768566 77.076218,53.120163 
	C77.989357,53.972370 78.893196,54.472980 79.891800,55.311714 
	C80.036346,55.808094 80.057961,55.984444 80.144485,56.119091 
	C80.218552,56.234356 80.366989,56.301838 80.482529,56.390450 
	C80.990707,55.370209 82.049736,54.262482 81.904198,53.346066 
	C81.460991,50.555305 80.553108,47.838345 80.244705,45.077179 
	C81.500862,45.071529 82.338432,45.081356 83.176003,45.091183 
	C85.480003,48.240570 87.851089,52.332020 85.127838,55.299911 
	C82.735474,57.907185 83.055038,60.218498 83.103729,62.781792 
	C83.128479,64.084457 84.317909,65.364998 85.194511,67.071526 
	C84.915810,67.155800 83.892761,67.465126 82.497299,67.887062 
	C82.170311,66.619682 81.882950,65.505913 81.821632,65.268227 
	C80.060974,65.930717 78.442505,66.539703 76.471634,67.074158 
	C75.903122,67.033760 75.687019,67.067894 75.088890,66.822769 
	C74.781151,66.020866 74.855431,65.498222 74.929703,64.975578 
z"/>
<path fill="#0C0C0C" opacity="1.000000" stroke="none" 
	d="
M39.043503,55.950119 
	C37.756687,53.663307 36.443066,51.351700 35.129444,49.040096 
	C35.032417,49.049427 34.935394,49.058758 34.838367,49.068092 
	C34.220982,47.952789 33.603592,46.837490 32.959320,45.361481 
	C32.932438,45.000771 32.954891,45.076950 33.379791,44.949673 
	C38.011600,45.964542 41.263481,43.315468 44.789974,42.429142 
	C46.474060,44.238441 48.228886,45.655933 50.140060,47.385422 
	C50.494270,47.819813 50.692123,47.942211 50.693954,48.488354 
	C48.625439,49.553799 46.752953,50.195496 44.905125,50.443428 
	C44.431011,49.119068 43.932236,48.188469 43.433460,47.257870 
	C42.978859,47.628166 42.524261,47.998463 42.069664,48.368755 
	C43.049953,49.160007 44.030247,49.951260 44.863491,51.154327 
	C42.792515,53.023201 40.868584,54.480255 38.944656,55.937309 
	C38.944656,55.937313 39.016697,55.925327 39.043503,55.950119 
z"/>
<path fill="#848484" opacity="1.000000" stroke="none" 
	d="
M70.453140,78.959930 
	C71.314186,78.985115 71.804306,78.974701 72.882217,78.829391 
	C73.566292,78.146599 73.662567,77.598694 73.758850,77.050789 
	C74.516304,76.681305 75.273750,76.311813 76.355087,75.957352 
	C79.005699,76.047005 81.362343,75.934181 83.642822,76.298363 
	C84.436028,76.425041 85.040810,77.731583 85.731651,78.499260 
	C84.979332,78.991341 84.263184,79.823517 83.467545,79.908104 
	C81.524094,80.114731 79.543869,79.975502 77.387680,79.975502 
	C77.172661,81.982994 77.002411,83.572495 76.803955,85.425339 
	C75.199951,85.617958 73.761375,85.790710 72.475449,85.945129 
	C72.100037,85.604156 71.900024,85.422485 71.700005,85.240814 
	C76.056580,81.881393 64.217117,82.670128 70.453140,78.959930 
z"/>
<path fill="#161616" opacity="1.000000" stroke="none" 
	d="
M58.885834,37.982224 
	C58.951775,32.606281 59.017715,27.230339 59.014725,21.385784 
	C61.322269,20.991758 62.515606,22.041222 62.131870,24.576357 
	C61.983982,25.553379 62.116459,26.571634 62.106499,27.570955 
	C62.068554,31.379635 61.528236,35.325108 64.975807,38.572517 
	C64.924736,38.987400 64.984917,38.918667 64.618156,38.932735 
	C61.838497,39.997021 59.425598,41.047237 56.757462,41.992531 
	C56.302406,41.587193 56.102585,41.286781 56.012192,40.695442 
	C56.114704,39.990593 56.107796,39.576675 56.434975,39.070213 
	C57.474651,38.645859 58.180244,38.314041 58.885834,37.982224 
z"/>
<path fill="#282828" opacity="1.000000" stroke="none" 
	d="
M16.417404,61.085930 
	C14.943552,61.086887 13.841422,61.086887 12.739293,61.086887 
	C12.657714,60.685867 12.576135,60.284851 12.494555,59.883831 
	C14.398705,59.411591 16.302855,58.939354 18.207005,58.467117 
	C18.333967,58.088451 18.460930,57.709785 18.587893,57.331123 
	C16.750860,56.793285 14.913827,56.255447 12.656198,55.594467 
	C12.898927,54.922729 13.001235,53.595379 13.501823,53.422714 
	C16.902431,52.249756 20.387016,51.320267 24.236378,51.195602 
	C20.048838,53.517666 22.631859,60.648598 16.417404,61.085930 
z"/>
<path fill="#747474" opacity="1.000000" stroke="none" 
	d="
M76.938354,51.990593 
	C75.857994,52.497292 74.777634,53.003990 73.451721,53.711899 
	C72.559784,53.789669 71.913406,53.666229 71.418457,53.115448 
	C72.454071,51.194221 73.338257,49.700336 74.370651,47.956036 
	C72.673546,46.905193 71.327438,46.071686 69.981331,45.238182 
	C69.670647,45.002266 69.359955,44.766354 69.028137,43.971916 
	C69.357788,42.626316 69.708572,41.839237 70.059364,41.052158 
	C70.059364,41.052158 70.006180,40.996830 70.370941,41.026871 
	C71.795464,40.745228 72.855209,40.433537 73.914963,40.121845 
	C73.914963,40.121845 74.050186,40.531246 73.930206,41.054607 
	C72.854950,42.005325 71.899658,42.432682 70.944374,42.860039 
	C73.524414,43.942566 76.137856,44.944550 75.884003,40.944939 
	C76.066071,40.403149 76.248131,39.861359 76.799881,39.512344 
	C77.792770,40.229015 78.415962,40.752907 79.095413,41.609898 
	C81.002396,45.272995 82.933266,44.156994 84.882065,42.046288 
	C84.553673,43.036491 84.225281,44.026695 83.536453,45.054039 
	C82.338432,45.081356 81.500862,45.071529 79.837357,45.060150 
	C75.042519,46.388988 78.018646,49.796341 76.938354,51.990593 
z"/>
<path fill="#161616" opacity="1.000000" stroke="none" 
	d="
M32.966087,44.979683 
	C30.548960,45.368614 28.098177,45.778633 25.647396,46.188652 
	C23.429579,45.274342 18.900574,44.274071 21.292112,39.582611 
	C24.842726,40.315975 28.486382,41.068562 32.523426,41.923370 
	C32.916813,42.025593 32.946754,41.944542 32.956116,42.336105 
	C32.961948,43.510761 32.958420,44.293854 32.954891,45.076950 
	C32.954891,45.076950 32.932438,45.000771 32.966087,44.979683 
z"/>
<path fill="#282828" opacity="1.000000" stroke="none" 
	d="
M16.626427,38.853748 
	C17.485762,39.318314 18.592600,40.084751 18.527227,40.202972 
	C17.150761,42.692131 15.642027,45.108147 12.945312,47.665363 
	C12.784569,45.002808 12.623826,42.340252 12.437073,39.246864 
	C13.906798,39.098373 15.117414,38.976059 16.626427,38.853748 
z"/>
<path fill="#0C0C0C" opacity="1.000000" stroke="none" 
	d="
M32.947159,42.056343 
	C33.244724,40.031303 32.970413,38.638065 30.262329,38.852455 
	C29.143480,38.941029 27.947161,38.050991 26.786074,37.606033 
	C26.903036,37.043129 27.019997,36.480221 27.136957,35.917313 
	C30.811502,35.917313 34.486046,35.917313 38.621422,36.002075 
	C39.082256,36.086834 39.013165,36.014790 38.943352,36.369465 
	C36.897945,38.464275 34.922352,40.204407 32.946754,41.944542 
	C32.946754,41.944542 32.916813,42.025593 32.947159,42.056343 
z"/>
<path fill="#282828" opacity="1.000000" stroke="none" 
	d="
M44.415691,79.121002 
	C44.780502,78.911827 44.687798,78.923386 44.665794,78.880432 
	C44.643795,80.786781 44.643795,82.736092 44.643795,85.046555 
	C42.782581,85.046555 40.962597,85.046555 39.142612,85.046555 
	C38.896996,84.743797 38.651379,84.441040 38.405758,84.138283 
	C40.287468,82.535583 42.169174,80.932884 44.415691,79.121002 
z"/>
<path fill="#848484" opacity="1.000000" stroke="none" 
	d="
M84.870880,41.749718 
	C82.933266,44.156994 81.002396,45.272995 79.425232,41.399040 
	C80.665230,40.566410 81.631668,40.277740 82.598099,39.989067 
	C83.351967,40.477097 84.105835,40.965122 84.870880,41.749718 
z"/>
<path fill="#0C0C0C" opacity="1.000000" stroke="none" 
	d="
M50.901020,73.710052 
	C50.248653,75.059090 49.499233,76.175919 48.749809,77.292755 
	C48.145397,76.915710 47.540981,76.538666 46.936565,76.161621 
	C47.722549,75.105293 48.508530,74.048958 49.619606,72.995758 
	C50.231125,73.158531 50.517544,73.318184 50.901020,73.710052 
z"/>
<path fill="#282828" opacity="1.000000" stroke="none" 
	d="
M82.640533,39.665073 
	C81.631668,40.277740 80.665230,40.566410 79.368980,41.065941 
	C78.415962,40.752907 77.792770,40.229015 77.069397,39.414810 
	C78.494225,38.775475 80.019234,38.426456 81.966248,38.106724 
	C82.486504,38.537701 82.584740,38.939388 82.640533,39.665073 
z"/>
<path fill="#161616" opacity="1.000000" stroke="none" 
	d="
M38.200634,32.937897 
	C38.311268,32.372517 38.630074,31.893353 38.948883,31.414188 
	C39.075184,31.866840 39.201481,32.319492 39.092857,32.916481 
	C38.857933,33.060822 38.408806,33.024109 38.200634,32.937897 
z"/>
<path fill="#0C0C0C" opacity="1.000000" stroke="none" 
	d="
M36.108093,70.266571 
	C36.401814,70.083092 36.614594,70.222031 36.884720,70.588333 
	C36.677067,70.678932 36.372093,70.603363 36.108093,70.266571 
z"/>
<path fill="#0C0C0C" opacity="1.000000" stroke="none" 
	d="
M59.181412,75.260605 
	C59.484905,75.104317 59.677132,75.257065 59.904869,75.636230 
	C59.697487,75.705597 59.407410,75.607925 59.181412,75.260605 
z"/>
<path fill="#F0F0F0" opacity="1.000000" stroke="none" 
	d="
M57.012703,42.097458 
	C59.425598,41.047237 61.838497,39.997021 64.661087,38.948338 
	C64.975670,41.032619 64.880562,43.115364 64.556053,45.632210 
	C63.032944,46.207840 61.739243,46.349373 60.445545,46.490902 
	C60.486862,46.760548 60.528183,47.030190 60.569500,47.299831 
	C62.139084,47.520378 63.708668,47.740925 65.278259,47.961472 
	C65.191658,49.442043 65.044205,50.922001 65.029190,52.403301 
	C64.969627,58.278191 62.445244,59.991062 55.560566,58.126232 
	C56.993923,56.850975 58.121742,55.847549 60.382969,53.835728 
	C57.378048,53.590633 55.651150,53.449783 53.634476,53.285294 
	C53.414558,55.523373 53.246456,57.234146 52.952122,60.229549 
	C51.135887,58.287586 50.114567,57.195560 48.603073,55.579433 
	C47.929295,58.359962 45.529049,60.541878 49.520878,62.217739 
	C49.993671,62.416225 50.269066,64.394295 50.178699,64.431320 
	C48.404026,65.158379 46.538586,65.658684 44.739635,66.333199 
	C43.048176,66.967415 41.412312,67.749893 38.983067,68.799301 
	C38.983067,64.077820 38.983067,60.474735 38.963860,56.404480 
	C40.868584,54.480255 42.792515,53.023201 44.831017,51.156994 
	C44.945587,50.747841 44.880463,50.837193 44.880463,50.837193 
	C46.752953,50.195496 48.625439,49.553799 51.034431,48.504654 
	C53.384853,46.097294 55.198776,44.097374 57.012703,42.097458 
z"/>
<path fill="#F0F0F0" opacity="1.000000" stroke="none" 
	d="
M62.051125,67.876740 
	C62.050697,65.797485 62.050697,64.178436 62.050697,62.307312 
	C65.020737,62.307312 67.618073,62.307312 70.585861,62.307312 
	C70.585861,64.815659 70.585861,67.527153 70.585861,70.811104 
	C67.878601,69.461220 63.805843,74.171234 62.051125,67.876740 
z"/>
<path fill="#0C0C0C" opacity="1.000000" stroke="none" 
	d="
M69.984673,45.649139 
	C71.327438,46.071686 72.673546,46.905193 74.370651,47.956036 
	C73.338257,49.700336 72.454071,51.194221 71.251312,52.828453 
	C70.617836,50.665901 70.302925,48.362999 69.984673,45.649139 
z"/>
<path fill="#747474" opacity="1.000000" stroke="none" 
	d="
M75.085297,56.409355 
	C78.606483,57.084972 79.275261,60.324478 76.232651,64.870316 
	C75.663803,62.190002 75.500214,59.462093 75.085297,56.409355 
z"/>
<path fill="#282828" opacity="1.000000" stroke="none" 
	d="
M65.625259,48.025673 
	C63.708668,47.740925 62.139084,47.520378 60.569500,47.299831 
	C60.528183,47.030190 60.486862,46.760548 60.445545,46.490902 
	C61.739243,46.349373 63.032944,46.207840 64.729233,46.045799 
	C66.003265,46.364605 66.874695,46.703918 67.746132,47.043236 
	C67.154846,47.392113 66.563560,47.740993 65.625259,48.025673 
z"/>
<path fill="#282828" opacity="1.000000" stroke="none" 
	d="
M75.608795,40.944931 
	C76.137856,44.944550 73.524414,43.942566 70.944374,42.860039 
	C71.899658,42.432682 72.854950,42.005325 74.021461,41.249924 
	C74.599655,40.929558 74.966621,40.937241 75.608795,40.944931 
z"/>
<path fill="#282828" opacity="1.000000" stroke="none" 
	d="
M73.886284,39.775757 
	C72.855209,40.433537 71.795464,40.745228 70.391953,41.058304 
	C71.065445,37.779942 71.704674,37.506416 73.886284,39.775757 
z"/>
<path fill="#0C0C0C" opacity="1.000000" stroke="none" 
	d="
M74.616928,65.022346 
	C74.855431,65.498222 74.781151,66.020866 74.781265,66.937050 
	C74.330330,67.307030 73.805000,67.283470 73.279678,67.259911 
	C73.621170,66.529648 73.962662,65.799377 74.616928,65.022346 
z"/>
<path fill="#282828" opacity="1.000000" stroke="none" 
	d="
M69.726486,41.053986 
	C69.708572,41.839237 69.357788,42.626316 68.876991,43.718369 
	C68.962524,43.034168 69.178070,42.044991 69.726486,41.053986 
z"/>
<path fill="#282828" opacity="1.000000" stroke="none" 
	d="
M67.762360,56.239304 
	C67.511230,55.727081 67.503731,55.160744 67.560150,54.600845 
	C67.563370,54.568928 68.089485,54.589703 68.372238,54.585953 
	C68.254784,55.119495 68.137329,55.653038 67.762360,56.239304 
z"/>
<path fill="#0C0C0C" opacity="1.000000" stroke="none" 
	d="
M58.591316,63.261017 
	C59.072876,63.023651 59.468082,63.019928 59.863293,63.016205 
	C59.751678,63.465202 59.640060,63.914200 59.528442,64.363197 
	C59.187283,64.073685 58.846123,63.784168 58.591316,63.261017 
z"/>
<path fill="#0C0C0C" opacity="1.000000" stroke="none" 
	d="
M66.498856,59.525612 
	C66.092041,59.597370 65.841209,59.516258 65.590370,59.435146 
	C65.870193,59.161694 66.150024,58.888241 66.429848,58.614788 
	C66.504845,58.867435 66.579842,59.120087 66.498856,59.525612 
z"/>
<path fill="#0C0C0C" opacity="1.000000" stroke="none" 
	d="
M73.569565,77.196533 
	C73.662567,77.598694 73.566292,78.146599 73.225220,78.695877 
	C73.113708,78.245583 73.247002,77.793930 73.569565,77.196533 
z"/>
<path fill="#F9F9F9" opacity="1.000000" stroke="none" 
	d="
M15.575671,17.943794 
	C16.524092,16.815414 17.434679,15.709728 18.406786,15.652700 
	C22.055128,15.438670 25.723553,15.566956 29.709667,15.566956 
	C29.709667,20.276030 29.709667,24.850830 29.709667,29.733076 
	C25.260845,29.733076 20.697596,29.733076 15.566084,29.733076 
	C15.566084,25.970589 15.566084,22.209267 15.575671,17.943794 
M26.367582,27.036640 
	C26.658001,24.274666 26.948420,21.512691 27.233185,18.804489 
	C23.809422,18.804489 21.267551,18.804489 18.733612,18.804489 
	C18.733612,21.741497 18.733612,24.306902 18.733612,27.101337 
	C21.163767,27.101337 23.298475,27.101337 26.367582,27.036640 
z"/>
<path fill="#D8D8D8" opacity="1.000000" stroke="none" 
	d="
M58.560410,37.947731 
	C58.180244,38.314041 57.474651,38.645859 56.257591,38.796852 
	C54.809013,37.733082 53.871899,36.850132 52.934788,35.967178 
	C53.027924,35.798763 53.121063,35.630344 53.347553,35.205894 
	C55.065601,35.937653 56.650295,36.925442 58.560410,37.947731 
z"/>
<path fill="#D8D8D8" opacity="1.000000" stroke="none" 
	d="
M70.092659,30.142277 
	C69.022629,29.540520 67.960854,28.959551 67.938454,28.340942 
	C67.788765,24.207207 67.860710,20.065447 67.860710,15.646093 
	C72.773949,15.646093 77.353867,15.646093 82.286957,15.646093 
	C82.286957,20.315716 82.286957,24.877146 82.286957,30.145653 
	C78.414963,30.145653 74.498344,30.145653 70.092659,30.142277 
M75.553802,18.638025 
	C74.144226,18.638025 72.734642,18.638025 71.299545,18.638025 
	C71.299545,21.732412 71.299545,24.258644 71.299545,26.669849 
	C74.147728,26.669849 76.682121,26.669849 79.811272,26.669849 
	C77.837013,23.942776 82.317650,19.522676 75.553802,18.638025 
z"/>
<path fill="#D8D8D8" opacity="1.000000" stroke="none" 
	d="
M23.041401,67.853645 
	C25.509853,67.853645 27.494551,67.853645 29.812334,67.853645 
	C29.812334,72.735016 29.812334,77.443962 29.812334,82.390610 
	C25.132141,82.390610 20.550655,82.390610 15.665987,82.390610 
	C15.665987,77.574699 15.665987,73.000366 15.665987,67.853645 
	C18.017897,67.853645 20.287771,67.853645 23.041401,67.853645 
M22.450665,71.002968 
	C21.214218,71.113655 19.977770,71.224350 18.920193,71.319031 
	C18.920193,74.143028 18.920193,76.547890 18.920193,79.042725 
	C21.719379,79.042725 24.227118,79.042725 27.536983,79.042725 
	C25.197683,76.329178 30.777866,70.875282 22.450665,71.002968 
z"/>
<path fill="#D8D8D8" opacity="1.000000" stroke="none" 
	d="
M32.956116,42.336105 
	C34.922352,40.204407 36.897945,38.464275 38.908554,36.333687 
	C39.936855,36.533062 40.919121,37.142628 41.927387,37.705647 
	C42.577549,38.068699 43.265850,38.363461 44.442776,38.346893 
	C46.013992,38.953552 47.079498,39.902149 48.873089,41.498951 
	C46.728775,41.786678 45.794743,41.912006 44.860710,42.037338 
	C41.263481,43.315468 38.011600,45.964542 33.379791,44.949673 
	C32.958420,44.293854 32.961948,43.510761 32.956116,42.336105 
z"/>
<path fill="#F0F0F0" opacity="1.000000" stroke="none" 
	d="
M44.789974,42.429142 
	C45.794743,41.912006 46.728775,41.786678 48.873089,41.498951 
	C47.079498,39.902149 46.013992,38.953552 44.596024,37.988121 
	C44.765354,37.313496 45.229721,36.156124 45.819351,36.088337 
	C47.872211,35.852333 49.968460,35.993744 52.491501,35.979420 
	C53.871899,36.850132 54.809013,37.733082 55.923504,38.889397 
	C56.107796,39.576675 56.114704,39.990593 55.586445,40.693386 
	C49.805916,40.054085 49.423817,43.171913 49.983707,47.073429 
	C48.228886,45.655933 46.474060,44.238441 44.789974,42.429142 
z"/>
<path fill="#F9F9F9" opacity="1.000000" stroke="none" 
	d="
M76.998741,52.180416 
	C78.018646,49.796341 75.042519,46.388988 79.418762,45.075630 
	C80.553108,47.838345 81.460991,50.555305 81.904198,53.346066 
	C82.049736,54.262482 80.990707,55.370209 80.482529,56.390450 
	C80.366989,56.301838 80.218552,56.234356 80.144485,56.119091 
	C80.057961,55.984444 80.036346,55.808094 79.909531,54.966774 
	C78.910637,53.778664 77.988777,53.273617 77.066925,52.768566 
	C77.066925,52.768566 77.059128,52.370243 76.998741,52.180416 
z"/>
<path fill="#747474" opacity="1.000000" stroke="none" 
	d="
M77.076218,53.120163 
	C77.988777,53.273617 78.910637,53.778664 79.814758,54.628654 
	C78.893196,54.472980 77.989357,53.972370 77.076218,53.120163 
z"/>
<path fill="#D8D8D8" opacity="1.000000" stroke="none" 
	d="
M50.140060,47.385422 
	C49.423817,43.171913 49.805916,40.054085 55.477020,40.984314 
	C56.102585,41.286781 56.302406,41.587193 56.757462,41.992531 
	C55.198776,44.097374 53.384853,46.097294 51.230453,48.080910 
	C50.692123,47.942211 50.494270,47.819813 50.140060,47.385422 
z"/>
<path fill="#D8D8D8" opacity="1.000000" stroke="none" 
	d="
M44.905125,50.443428 
	C44.880463,50.837193 44.945587,50.747841 44.978065,50.745178 
	C44.030247,49.951260 43.049953,49.160007 42.069664,48.368755 
	C42.524261,47.998463 42.978859,47.628166 43.433460,47.257870 
	C43.932236,48.188469 44.431011,49.119068 44.905125,50.443428 
z"/>
<path fill="#161616" opacity="1.000000" stroke="none" 
	d="
M25.900383,27.068989 
	C23.298475,27.101337 21.163767,27.101337 18.733612,27.101337 
	C18.733612,24.306902 18.733612,21.741497 18.733612,18.804489 
	C21.267551,18.804489 23.809422,18.804489 27.233185,18.804489 
	C26.948420,21.512691 26.658001,24.274666 25.900383,27.068989 
z"/>
<path fill="#060606" opacity="1.000000" stroke="none" 
	d="
M76.051674,18.639313 
	C82.317650,19.522676 77.837013,23.942776 79.811272,26.669849 
	C76.682121,26.669849 74.147728,26.669849 71.299545,26.669849 
	C71.299545,24.258644 71.299545,21.732412 71.299545,18.638025 
	C72.734642,18.638025 74.144226,18.638025 76.051674,18.639313 
z"/>
<path fill="#060606" opacity="1.000000" stroke="none" 
	d="
M22.923931,71.002960 
	C30.777866,70.875282 25.197683,76.329178 27.536983,79.042725 
	C24.227118,79.042725 21.719379,79.042725 18.920193,79.042725 
	C18.920193,76.547890 18.920193,74.143028 18.920193,71.319031 
	C19.977770,71.224350 21.214218,71.113655 22.923931,71.002960 
z"/>
</svg>